<?xml version="1.0" standalone="no"?>
<!DOCTYPE svg PUBLIC "-//W3C//DTD SVG 20010904//EN"
 "http://www.w3.org/TR/2001/REC-SVG-20010904/DTD/svg10.dtd">
<svg version="1.0" xmlns="http://www.w3.org/2000/svg"
 width="800.000000pt" height="289.000000pt" viewBox="0 0 800.000000 289.000000"
 preserveAspectRatio="xMidYMid meet">

<g transform="translate(0.000000,289.000000) scale(0.100000,-0.100000)"
fill="#000000" stroke="none">
<path d="M4068 2188 c-26 -9 -28 -13 -28 -69 0 -70 34 -169 168 -485 107 -251
124 -299 168 -475 39 -158 67 -240 101 -289 12 -19 23 -40 23 -46 0 -28 127
-104 172 -104 13 1 33 9 46 20 33 27 80 135 92 213 11 70 37 149 84 250 14 32
26 59 26 61 0 2 8 21 17 42 9 22 18 44 19 49 11 40 57 263 77 370 13 72 38
166 56 209 35 88 34 99 -12 171 -47 72 -51 75 -124 75 -65 0 -67 -1 -108 -44
-29 -30 -52 -69 -74 -126 -44 -117 -54 -155 -157 -590 -5 -21 -12 -11 -55 69
-32 62 -52 115 -59 155 -19 121 -165 373 -288 499 -60 60 -83 68 -144 45z
m100 -72 c48 -52 94 -138 86 -160 -4 -9 0 -18 9 -22 8 -3 18 -17 21 -32 7 -29
92 -298 110 -347 6 -16 26 -58 44 -93 31 -61 65 -175 55 -186 -3 -2 0 -19 6
-38 6 -18 18 -56 26 -85 27 -86 66 -79 79 14 3 27 13 75 21 108 8 33 33 148
55 255 72 347 126 517 183 579 30 33 81 53 115 45 51 -13 50 -32 -5 -153 -41
-92 -93 -269 -137 -476 -19 -88 -42 -195 -51 -237 -9 -43 -21 -78 -26 -78 -5
0 -9 -18 -9 -39 0 -22 -4 -43 -10 -46 -5 -3 -10 -17 -10 -29 0 -26 -47 -158
-59 -166 -4 -3 -11 -18 -15 -35 -4 -16 -12 -36 -18 -42 -13 -17 -76 -17 -111
0 -42 19 -104 175 -142 358 -29 138 -79 272 -232 619 -60 136 -98 268 -89 306
11 41 56 32 104 -20z m900 -61 c6 -14 8 -34 4 -45 -7 -18 -9 -19 -29 -5 -19
13 -20 18 -10 45 14 36 20 37 35 5z m-747 -100 c7 -13 1 -10 -15 8 -14 15 -26
33 -26 40 1 13 26 -16 41 -48z m719 13 c24 -26 23 -50 -3 -54 -22 -3 -50 37
-41 60 8 22 19 20 44 -6z m-6 -109 c-9 -15 -21 -11 -49 15 -39 36 -22 52 21
20 18 -14 31 -30 28 -35z m-651 -5 c15 -26 26 -49 23 -51 -12 -12 -43 11 -63
46 -28 48 -28 51 -5 51 10 0 29 -19 45 -46z m614 -28 c19 -17 25 -28 18 -35
-14 -14 -75 23 -75 44 0 22 25 18 57 -9z m-546 -99 c16 -29 7 -28 -44 4 -61
38 -67 71 -6 37 22 -13 45 -31 50 -41z m529 33 c39 -29 16 -35 -27 -6 -28 20
-33 26 -18 26 11 0 31 -9 45 -20z m-13 -52 c25 -23 31 -58 11 -58 -21 1 -81
57 -74 69 11 17 38 13 63 -11z m-550 -25 c22 -26 24 -27 37 -10 13 16 14 16
20 -5 8 -31 7 -48 -2 -48 -9 0 -92 75 -92 84 0 13 15 5 37 -21z m531 -53 c36
-33 40 -42 15 -33 -39 15 -83 45 -77 54 9 16 28 9 62 -21z m-485 -46 c45 -43
42 -56 -5 -23 -34 24 -48 38 -48 52 0 15 16 6 53 -29z m471 -11 c20 -10 36
-26 36 -35 0 -10 -3 -18 -8 -18 -9 0 -50 28 -76 52 -17 16 -18 18 -3 18 9 0
32 -8 51 -17z m-6 -73 c35 -32 41 -50 17 -50 -14 0 -85 62 -85 75 0 15 39 1
68 -25z m-394 -16 c9 -23 1 -28 -24 -14 -18 10 -20 14 -9 21 20 12 26 11 33
-7z m411 -84 c2 -3 0 -12 -5 -20 -7 -11 -13 -10 -35 4 -43 28 -65 55 -59 71 5
12 15 9 51 -17 24 -18 46 -35 48 -38z m-385 4 c0 -14 -3 -14 -15 -4 -8 7 -15
14 -15 16 0 2 7 4 15 4 8 0 15 -7 15 -16z m307 -29 c62 -31 71 -76 14 -67 -33
5 -64 42 -55 66 7 19 4 19 41 1z m-285 -50 c13 -17 9 -23 -12 -18 -23 6 -50
40 -50 62 0 10 8 7 27 -10 15 -13 31 -28 35 -34z m308 -70 c0 -26 -18 -25 -49
1 -47 39 -41 60 9 34 22 -11 40 -27 40 -35z m-310 -7 c0 -4 -9 -3 -20 4 -11 7
-20 19 -20 27 0 11 5 10 20 -4 11 -10 20 -22 20 -27z m251 -25 c16 -10 29 -25
29 -35 0 -14 -6 -16 -32 -11 -42 7 -49 14 -42 41 8 26 8 27 45 5z m-261 -33
c0 -5 -4 -10 -10 -10 -5 0 -10 5 -10 10 0 6 5 10 10 10 6 0 10 -4 10 -10z
m225 -40 c3 -5 14 -10 25 -10 13 0 17 -5 13 -20 -3 -11 -10 -20 -17 -20 -19 1
-46 26 -46 44 0 18 15 22 25 6z m-7 -72 c15 -15 16 -45 1 -53 -16 -11 -48 24
-42 46 6 22 23 25 41 7z m-26 -85 c19 -17 23 -49 9 -71 -6 -11 -13 -7 -30 14
-21 27 -27 55 -14 67 9 10 15 9 35 -10z m-24 -92 c27 -24 28 -31 2 -24 -11 3
-25 14 -31 24 -12 24 0 24 29 0z m1 -69 c3 -1 -3 -10 -12 -19 -16 -16 -18 -16
-38 4 -15 15 -19 27 -14 43 l7 22 26 -24 c15 -12 29 -24 31 -26z m-149 -22 c0
-5 -4 -10 -9 -10 -6 0 -13 5 -16 10 -3 6 1 10 9 10 9 0 16 -4 16 -10z m85 -15
l30 -24 -34 2 c-25 2 -36 8 -42 25 -11 30 8 29 46 -3z"/>
<path d="M715 2165 c-104 -29 -223 -86 -267 -128 -24 -23 -47 -50 -51 -59 -13
-35 93 -147 160 -169 30 -10 34 -8 72 30 43 43 126 75 166 65 13 -3 26 -1 29
5 4 6 24 11 45 11 33 0 45 -7 76 -41 35 -39 37 -45 33 -96 -11 -133 -314 -610
-452 -713 -96 -71 -113 -104 -90 -179 18 -61 56 -99 126 -126 48 -19 57 -20
103 -8 49 13 113 10 146 -8 9 -5 60 -14 112 -20 107 -12 234 -1 291 26 80 38
74 146 -12 229 l-41 39 -137 -2 c-75 -1 -140 -4 -145 -7 -5 -3 -9 -1 -9 5 0 5
4 12 9 16 6 3 43 58 82 123 40 64 88 132 106 151 18 18 33 37 33 42 0 5 7 9
15 9 8 0 15 7 15 16 0 8 15 36 32 62 18 26 33 49 34 52 0 3 8 29 17 59 24 76
31 168 18 218 -6 23 -27 63 -46 90 -19 26 -43 64 -52 83 -33 65 -132 159 -208
195 -84 41 -143 49 -210 30z m207 -72 c73 -38 158 -115 158 -143 0 -9 9 -29
21 -44 34 -44 46 -141 27 -228 -31 -139 -62 -191 -250 -408 -109 -126 -137
-164 -152 -208 -11 -31 -12 -43 -3 -50 20 -16 87 -19 220 -9 144 10 222 4 213
-18 -3 -8 1 -21 8 -28 8 -7 16 -33 17 -57 4 -43 3 -44 -31 -51 -19 -4 -39 -4
-44 1 -5 5 -17 4 -27 -3 -13 -8 -41 -8 -111 2 -51 7 -130 17 -174 23 -63 9
-104 9 -183 -2 -118 -16 -145 -9 -156 40 -11 49 11 84 91 151 121 99 308 361
410 573 67 139 75 181 45 229 -31 51 -96 106 -158 134 -46 21 -66 25 -132 22
-68 -4 -82 -8 -115 -34 -77 -61 -72 -59 -111 -35 -29 18 -33 25 -25 41 34 63
274 156 365 141 17 -2 60 -20 97 -39z m-181 -127 c20 -17 24 -26 15 -29 -19
-8 -60 16 -64 36 -5 24 15 21 49 -7z m-56 -55 c-3 -7 -16 0 -30 17 -30 35 -22
48 11 17 14 -13 23 -29 19 -34z m140 49 c3 -5 -3 -10 -14 -10 -12 0 -21 5 -21
10 0 6 6 10 14 10 8 0 18 -4 21 -10z m-195 -51 c0 -6 -4 -7 -10 -4 -5 3 -10
11 -10 16 0 6 5 7 10 4 6 -3 10 -11 10 -16z m-115 -29 c3 -6 15 -10 26 -10 10
0 19 -7 19 -15 0 -23 -13 -18 -56 20 -22 21 -29 31 -17 25 12 -5 25 -15 28
-20z m76 20 c10 -6 19 -20 19 -31 0 -20 -1 -20 -29 3 -37 30 -31 49 10 28z
m619 -185 c0 -15 -18 -2 -28 20 -20 44 -13 62 8 22 11 -20 20 -39 20 -42z m0
-93 c0 -13 -5 -11 -26 10 -19 19 -24 31 -19 48 7 21 8 21 26 -9 10 -17 19 -39
19 -49z m-18 -64 c-6 -6 -17 1 -30 20 -28 38 -16 49 15 16 15 -17 21 -30 15
-36z m-28 -47 c-7 -7 -34 28 -34 43 1 6 10 0 21 -13 11 -13 17 -27 13 -30z
m-14 -43 c0 -13 -43 15 -48 31 -3 9 5 7 22 -4 14 -10 26 -22 26 -27z m-31 -32
c9 -11 9 -16 0 -22 -11 -6 -48 31 -49 49 0 10 33 -8 49 -27z m-46 -30 c18 -14
23 -36 8 -36 -5 0 -16 11 -25 25 -18 27 -11 32 17 11z m-28 -46 c27 -30 12
-34 -15 -5 -13 14 -19 25 -13 25 5 0 18 -9 28 -20z m-29 -35 c19 -30 5 -56
-25 -48 -23 6 -34 42 -19 60 15 19 25 16 44 -12z m-57 -69 c12 -13 18 -27 13
-30 -11 -7 -64 39 -55 48 11 10 19 7 42 -18z m-23 -81 c-5 -15 -9 -15 -22 -4
-19 16 -34 50 -27 63 10 15 56 -41 49 -59z m-59 -7 c27 -31 36 -48 25 -48 -5
0 -22 16 -36 35 -30 39 -21 48 11 13z m-17 -66 c0 -12 -7 -9 -25 8 -14 13 -25
30 -25 38 0 12 7 9 25 -8 14 -13 25 -30 25 -38z m-49 -11 c13 -11 21 -22 18
-26 -4 -3 -20 5 -35 19 -34 29 -18 35 17 7z m-16 -51 c18 -20 17 -20 -13 -20
-32 0 -48 13 -37 30 10 16 30 12 50 -10z m435 -151 c0 -6 -4 -7 -10 -4 -5 3
-10 11 -10 16 0 6 5 7 10 4 6 -3 10 -11 10 -16z m-496 -35 c9 -3 16 -11 16
-17 0 -6 7 -19 17 -29 28 -31 -9 -22 -40 10 -37 39 -34 52 7 36z m125 -46 c22
-24 36 -45 30 -47 -16 -5 -93 52 -97 72 -6 30 25 18 67 -25z m358 8 c-4 -9
-11 -16 -17 -16 -17 0 -24 31 -9 41 18 11 34 -5 26 -25z m-587 -29 c0 -6 -11
0 -25 13 -14 13 -25 28 -25 33 0 6 11 0 25 -13 14 -13 25 -28 25 -33z m44 43
c14 -5 26 -16 26 -25 0 -22 -17 -18 -48 10 -28 26 -21 32 22 15z m304 -85 c-7
-8 -88 72 -88 87 0 7 21 -8 47 -34 26 -26 45 -50 41 -53z m38 43 c19 -18 34
-37 34 -43 0 -5 -6 -3 -13 5 -7 8 -24 23 -39 33 -16 10 -28 22 -28 27 0 16 10
12 46 -22z m85 10 c19 -24 25 -48 11 -48 -4 0 -23 16 -42 35 -32 33 -33 35
-11 35 13 0 31 -10 42 -22z m54 2 c21 -23 4 -27 -19 -4 -18 17 -20 24 -8 24 5
0 17 -9 27 -20z"/>
<path d="M1639 2151 c-108 -54 -232 -148 -254 -192 -8 -15 -19 -44 -24 -65 -6
-22 -24 -79 -41 -129 -79 -234 -78 -415 3 -621 19 -49 38 -100 42 -114 14 -50
59 -100 160 -179 145 -114 166 -124 234 -123 79 1 110 6 156 26 149 64 215
123 257 231 43 107 66 214 79 353 11 113 10 133 -5 186 -10 33 -23 99 -31 148
-15 102 -47 175 -90 202 -16 11 -46 44 -65 74 -71 109 -199 201 -287 205 -21
1 -44 8 -51 15 -18 16 -19 16 -83 -17z m59 -51 c9 0 34 5 55 11 124 34 330
-190 376 -409 17 -81 22 -283 10 -406 -19 -201 -79 -328 -167 -356 -40 -13
-107 -47 -132 -66 -24 -19 -115 -34 -146 -25 -63 18 -217 113 -271 167 -28 28
-85 146 -104 220 -34 122 -32 318 4 437 15 48 27 93 27 100 0 6 11 34 25 61
14 27 25 58 25 68 0 29 64 91 158 156 98 67 116 75 120 55 2 -7 11 -13 20 -13z
m461 -340 c0 -10 -3 -8 -9 5 -12 27 -12 43 0 25 5 -8 9 -22 9 -30z m30 -133
c1 -10 -3 -15 -9 -12 -5 3 -10 21 -9 38 0 27 2 29 9 12 5 -11 9 -28 9 -38z m9
-85 c8 -15 18 -38 23 -52 l10 -24 -24 26 c-23 24 -42 78 -28 78 3 0 12 -12 19
-28z m23 -124 c7 -13 6 -18 -4 -18 -21 0 -37 22 -37 50 1 24 1 25 16 5 9 -11
20 -28 25 -37z m-21 -48 c22 -22 28 -74 8 -68 -7 3 -14 14 -16 26 -2 12 -8 22
-13 22 -5 0 -9 9 -9 20 0 11 2 20 5 20 3 0 14 -9 25 -20z m-8 -97 c10 -9 18
-22 18 -29 0 -8 -11 -2 -25 12 -14 14 -25 27 -25 29 0 10 14 4 32 -12z m8
-104 c0 -4 -4 -11 -10 -14 -5 -3 -10 3 -10 15 0 11 -7 23 -15 26 -8 4 -12 11
-8 17 6 10 43 -27 43 -44z m-26 -52 c6 -15 7 -30 3 -34 -10 -9 -36 27 -37 50
0 27 23 15 34 -16z m-26 -59 c14 -14 16 -48 3 -48 -11 0 -41 39 -41 52 0 12
25 9 38 -4z m-8 -100 c0 -5 -7 -8 -15 -8 -16 0 -48 54 -38 64 7 6 52 -42 53
-56z m-30 -50 c0 -16 -21 -8 -46 17 -36 36 -19 54 17 19 16 -15 29 -31 29 -36z
m-588 2 c21 -14 38 -32 38 -39 0 -9 -14 -2 -37 20 -21 18 -42 38 -48 43 -18
15 8 2 47 -24z m547 -44 c-8 -9 -69 45 -63 56 4 6 19 -3 37 -21 17 -17 29 -33
26 -35z m-49 -28 c0 -4 -6 -8 -14 -8 -19 0 -68 59 -60 72 6 10 74 -49 74 -64z
m-86 11 c29 -34 32 -45 14 -52 -36 -13 -83 41 -63 72 10 18 22 13 49 -20z
m-265 -19 c4 0 13 -11 19 -25 10 -21 9 -25 -3 -25 -8 0 -15 5 -15 11 0 6 -10
20 -22 31 -19 16 -20 19 -5 14 10 -3 22 -6 26 -6z m195 -21 c10 -17 16 -33 13
-36 -8 -8 -47 35 -47 52 0 24 14 17 34 -16z m-51 -19 c20 -33 20 -34 2 -20
-25 18 -45 41 -45 53 0 17 21 1 43 -33z m-53 -11 c0 -16 -28 3 -33 23 -5 19
-5 19 14 2 10 -9 19 -21 19 -25z"/>
<path d="M1678 2000 c-83 -25 -129 -80 -172 -208 -14 -40 -32 -82 -40 -94 -9
-12 -16 -40 -16 -61 0 -21 -4 -46 -10 -56 -18 -34 -24 -177 -10 -228 41 -147
160 -309 258 -351 49 -21 53 -21 160 3 35 8 111 83 136 135 35 69 47 135 47
247 0 201 -36 357 -112 485 -46 78 -78 106 -131 114 -21 4 -38 10 -38 15 0 11
-35 10 -72 -1z m46 -61 c11 -2 21 -10 24 -16 6 -21 -33 -15 -62 8 -21 17 -25
24 -14 30 8 5 17 3 23 -5 6 -8 19 -15 29 -17z m96 -14 c10 -12 10 -15 -3 -15
-8 0 -20 7 -27 15 -10 12 -10 15 3 15 8 0 20 -7 27 -15z m-169 -5 c22 -12 26
-50 5 -50 -16 0 -48 45 -39 54 8 8 11 8 34 -4z m182 -47 c142 -22 231 -479
137 -698 -38 -89 -132 -164 -205 -165 -45 0 -125 42 -173 92 l-43 45 -9 114
c-19 233 54 509 158 601 29 24 41 29 66 24 17 -4 48 -9 69 -13z m-206 -20 c21
-27 3 -34 -27 -11 -16 13 -29 27 -29 31 -1 13 43 -3 56 -20z m-31 -47 c11 -17
13 -30 6 -42 -8 -14 -12 -13 -29 12 -35 50 -36 54 -14 54 11 0 28 -11 37 -24z
m-31 -76 c18 -35 4 -41 -19 -8 -18 26 -20 38 -6 38 5 0 16 -13 25 -30z m-26
-52 c6 -17 10 -33 8 -35 -8 -7 -49 46 -42 56 11 19 23 12 34 -21z m-26 -58
c31 -45 21 -63 -11 -20 -19 25 -29 60 -18 60 2 0 15 -18 29 -40z m2 -99 c-8
-8 -45 32 -45 48 1 11 8 7 25 -14 13 -16 22 -31 20 -34z m-35 -75 c0 -7 5 -17
12 -24 14 -14 19 -42 7 -42 -12 0 -59 72 -53 81 7 11 34 -1 34 -15z m19 -156
l0 -35 -13 25 c-8 14 -17 41 -20 60 l-7 35 20 -25 c12 -15 20 -39 20 -60z"/>
<path d="M2294 2166 c-28 -83 -35 -433 -9 -507 19 -52 47 -84 97 -110 100 -51
164 -13 177 106 8 77 3 314 -7 370 -13 67 -49 134 -78 145 -32 13 -175 9 -180
-4z m163 -56 c14 -38 9 -157 -9 -225 -6 -22 -10 -88 -10 -147 l0 -108 -41 5
c-23 2 -48 4 -54 4 -8 1 -13 15 -13 35 0 25 -5 35 -20 39 -24 6 -25 39 -9 222
16 184 17 186 69 201 63 16 73 13 87 -26z m61 -140 c17 -28 28 -140 14 -140
-13 0 -42 91 -42 132 0 33 10 36 28 8z m7 -180 c10 0 15 -10 15 -32 0 -30 0
-31 -20 -13 -11 10 -22 26 -25 36 -4 11 -13 19 -21 19 -8 0 -14 10 -14 23 0
39 13 40 32 2 10 -19 25 -35 33 -35z m9 -127 c-9 -32 -19 -29 -42 11 -15 25
-17 37 -9 45 18 18 58 -28 51 -56z m-38 -38 c18 -33 18 -36 1 -52 -17 -17 -19
-17 -28 0 -6 9 -19 17 -29 17 -11 0 -20 5 -20 10 0 6 7 10 15 10 8 0 17 11 21
25 8 34 17 31 40 -10z"/>
<path d="M5743 2092 c-16 -69 -18 -127 -18 -547 1 -696 21 -818 132 -797 26 5
100 85 109 118 7 29 36 22 90 -22 50 -40 108 -56 205 -57 109 0 140 14 200 86
93 115 139 240 139 381 0 108 -22 180 -76 252 -25 32 -54 76 -65 97 -11 21
-25 40 -32 43 -7 2 -34 34 -62 69 -89 115 -173 139 -285 81 -27 -14 -52 -26
-55 -26 -3 0 -5 51 -5 114 0 63 -5 127 -10 142 -6 15 -33 52 -61 83 l-51 55
-69 3 -68 3 -18 -78z m139 14 c7 -13 12 -88 12 -208 1 -245 6 -251 133 -169
91 58 143 76 188 61 45 -15 145 -111 145 -139 0 -11 8 -25 18 -30 27 -14 75
-115 67 -140 -4 -14 -1 -23 9 -27 14 -5 33 -58 28 -78 -2 -4 2 -14 8 -21 10
-12 16 -131 11 -215 -2 -41 -22 -90 -37 -90 -8 0 -14 -10 -14 -26 0 -17 -6
-28 -19 -31 -11 -3 -22 -14 -25 -26 -4 -17 -7 -18 -21 -7 -18 15 -31 6 -37
-25 -2 -11 -12 -21 -23 -23 -11 -2 -28 -11 -37 -19 -9 -8 -22 -12 -28 -8 -6 4
-20 -2 -31 -14 -42 -45 -98 -40 -155 15 -21 19 -51 38 -66 41 -15 3 -28 9 -28
12 0 4 -16 7 -36 8 -33 1 -37 -2 -54 -40 -10 -25 -30 -49 -50 -61 -32 -18 -32
-18 -48 5 -9 13 -21 37 -26 54 -5 16 -11 255 -13 530 -4 438 -2 512 12 595 10
52 19 97 20 100 2 3 22 4 44 2 30 -3 45 -10 53 -26z m106 -84 c6 -18 -15 -14
-22 4 -4 10 -1 14 6 12 6 -2 14 -10 16 -16z m12 -91 c0 -12 -4 -21 -9 -21 -15
0 -51 56 -51 80 0 20 2 20 30 -8 17 -17 30 -40 30 -51z m-7 -87 c-4 -11 -11
-8 -29 11 -13 14 -24 33 -24 42 0 13 7 10 29 -11 16 -16 27 -35 24 -42z m-13
-61 c0 -19 -18 -16 -30 6 -17 33 -12 46 10 26 11 -10 20 -24 20 -32z m-25 -43
c3 -5 -1 -10 -9 -10 -9 0 -16 5 -16 10 0 6 4 10 9 10 6 0 13 -4 16 -10z m594
-350 c5 -16 6 -30 1 -30 -14 0 -40 30 -40 46 0 26 28 14 39 -16z m25 -119 c-3
-3 -10 2 -15 12 -6 9 -14 15 -20 12 -5 -4 -9 1 -9 9 0 26 34 24 42 -3 4 -14 5
-27 2 -30z m-15 -38 c21 -20 18 -83 -4 -83 -16 0 -25 23 -25 66 0 39 4 41 29
17z m-4 -123 c3 -5 -1 -10 -9 -10 -9 0 -16 5 -16 10 0 6 4 10 9 10 6 0 13 -4
16 -10z m-22 -66 c-5 -15 -16 -18 -26 -8 -10 11 4 33 18 28 8 -3 11 -12 8 -20z
m-48 -70 c-23 -17 -34 -2 -14 22 9 11 15 12 23 4 8 -8 6 -15 -9 -26z m-29 -35
c9 -16 -10 -31 -30 -23 -13 5 -14 9 -5 20 14 17 25 18 35 3z m-516 -36 c-1
-24 -2 -26 -11 -10 -5 9 -7 22 -4 27 10 17 15 11 15 -17z m465 -13 c15 -16 16
-22 5 -35 -12 -15 -14 -15 -22 -1 -5 9 -18 16 -28 16 -25 0 -25 9 -2 26 23 18
26 17 47 -6z m-487 -55 c-9 -9 -30 14 -23 25 6 9 10 8 17 -4 6 -10 8 -19 6
-21z m432 1 c11 -14 9 -16 -14 -16 -16 0 -26 5 -26 15 0 8 -5 15 -11 15 -5 0
-7 5 -4 10 7 12 35 -1 55 -24z m-85 -6 c4 -6 -7 -10 -27 -10 -25 0 -29 3 -18
10 19 13 37 13 45 0z m-375 -30 c0 -6 -9 -10 -20 -10 -13 0 -20 7 -20 20 0 18
3 19 20 10 11 -6 20 -15 20 -20z"/>
<path d="M6040 1648 c-24 -13 -53 -27 -63 -33 -24 -13 -63 -90 -77 -152 -10
-40 -14 -170 -9 -248 2 -30 63 -158 85 -177 26 -22 130 -48 194 -48 120 0 200
118 200 293 0 161 -55 279 -158 346 -66 42 -115 47 -172 19z m82 -40 c9 0 19
-6 22 -14 7 -17 43 -19 49 -1 3 9 8 9 17 1 9 -9 4 -14 -21 -23 -44 -15 -69
-14 -69 4 0 8 -4 15 -8 15 -5 0 -17 7 -28 16 -19 15 -19 16 1 8 11 -3 28 -6
37 -6z m-33 -69 c-8 -4 -16 -5 -19 -1 -3 4 -14 12 -24 18 -40 22 -27 34 14 13
29 -15 38 -24 29 -30z m-62 -7 c16 -20 -1 -43 -25 -35 -28 9 -43 34 -31 49 12
15 38 8 56 -14z m208 -2 c3 -5 12 -7 20 -4 18 7 60 -74 81 -159 31 -118 2
-232 -81 -320 l-35 -39 -68 8 c-37 4 -85 12 -107 18 l-40 12 -6 64 c-11 106
-10 199 2 269 14 77 56 130 106 132 15 0 44 7 63 14 43 17 57 18 65 5z m-245
-87 c0 -17 -10 -16 -32 4 -10 9 -18 25 -18 36 0 20 1 20 25 -3 14 -13 25 -29
25 -37z m-40 -37 c0 -8 5 -16 12 -18 8 -3 8 -9 1 -21 -9 -17 -10 -16 -27 2
-10 11 -16 27 -13 36 8 19 27 20 27 1z m-8 -83 c18 -16 25 -43 11 -43 -12 0
-43 33 -43 47 0 17 10 17 32 -4z m8 -117 l-1 -31 -14 25 c-8 14 -14 33 -15 44
0 15 3 16 15 6 8 -7 15 -27 15 -44z m10 -77 c0 -6 -4 -7 -10 -4 -5 3 -10 11
-10 16 0 6 5 7 10 4 6 -3 10 -11 10 -16z"/>
<path d="M5396 2144 c-25 -25 -21 -120 8 -186 14 -31 31 -58 38 -60 43 -16
178 32 192 68 18 46 -23 160 -64 181 -37 19 -155 17 -174 -3z m120 -22 c11 -6
18 -44 15 -83 -2 -28 -47 -51 -86 -43 l-35 6 0 64 0 64 48 0 c26 0 52 -4 58
-8z m83 -87 c0 -20 0 -20 -14 -1 -8 11 -15 31 -15 45 l1 26 14 -25 c8 -14 14
-34 14 -45z m-9 -67 c0 -11 -7 -10 -31 3 -17 9 -18 13 -8 26 12 13 14 13 26
-3 7 -10 13 -21 13 -26z m-60 -13 c22 -26 6 -35 -19 -10 -17 18 -19 25 -8 25
8 0 20 -7 27 -15z m-55 -24 c-6 -5 -25 10 -25 20 0 5 6 4 14 -3 8 -7 12 -15
11 -17z"/>
<path d="M2837 1826 c-76 -22 -116 -54 -168 -135 -34 -53 -36 -88 -10 -162 11
-30 27 -74 36 -99 11 -31 37 -65 85 -111 87 -84 96 -89 205 -129 111 -40 149
-59 198 -98 l38 -31 -21 -21 c-55 -55 -116 -53 -304 11 -187 63 -242 70 -286
39 -26 -19 -30 -27 -25 -49 4 -14 9 -43 10 -63 6 -92 104 -166 277 -210 91
-23 263 -23 291 0 8 7 38 15 67 19 39 4 62 15 93 41 60 49 114 117 122 153 12
54 -12 214 -42 279 -29 65 -60 87 -197 140 -178 70 -266 111 -266 124 0 28 49
63 97 70 65 8 94 -2 191 -68 123 -83 166 -75 167 33 0 51 -5 64 -40 115 -75
110 -180 157 -360 162 -73 2 -126 -1 -158 -10z m213 -27 c71 -11 181 -58 218
-92 13 -12 30 -34 38 -48 11 -23 11 -29 -2 -45 -11 -14 -17 -15 -20 -6 -3 6
-12 12 -21 12 -8 0 -26 9 -40 20 -32 25 -126 60 -163 60 -75 0 -224 -49 -234
-77 -10 -24 33 -92 77 -124 67 -49 130 -78 275 -125 74 -24 145 -50 156 -58
15 -9 27 -37 40 -88 22 -88 14 -141 -34 -224 -67 -116 -119 -140 -305 -138
-232 2 -347 35 -396 113 -31 48 -36 80 -17 99 22 22 109 13 198 -19 47 -17
114 -42 150 -55 42 -15 88 -23 129 -24 64 0 65 1 108 45 36 38 43 52 43 84 0
32 -6 45 -40 75 -47 43 -145 91 -285 142 -140 51 -173 75 -214 158 -45 90 -50
142 -20 195 34 60 100 102 194 121 57 11 91 11 165 -1z m15 -150 c4 -6 5 -13
2 -16 -8 -7 -47 7 -47 18 0 13 37 11 45 -2z m-75 -14 c10 -13 9 -15 -9 -15
-12 0 -21 6 -21 15 0 8 4 15 9 15 5 0 14 -7 21 -15z m150 0 c29 -15 40 -35 21
-35 -12 0 -69 49 -58 50 4 0 21 -7 37 -15z m-200 -34 c0 -6 -6 -11 -14 -11
-16 0 -29 27 -20 41 6 10 34 -14 34 -30z m-40 -45 c0 -16 -28 15 -34 37 -5 21
-4 21 14 -3 11 -14 20 -29 20 -34z m444 -21 c5 -34 5 -37 -5 -20 -7 11 -17 23
-23 27 -6 4 -5 12 4 22 16 20 16 20 24 -29z m-70 -4 c-2 -3 -12 3 -22 13 -16
17 -16 18 5 5 12 -7 20 -15 17 -18z m-464 -191 c0 -5 -2 -10 -4 -10 -3 0 -8 5
-11 10 -3 6 -1 10 4 10 6 0 11 -4 11 -10z m100 -82 c0 -18 -18 -6 -31 20 -23
45 -22 48 5 17 14 -16 25 -33 26 -37z m44 19 c-3 -8 2 -20 11 -27 19 -16 20
-30 1 -30 -7 0 -16 8 -19 18 -2 9 -8 25 -12 35 -5 12 -2 17 9 17 9 0 13 -6 10
-13z m75 -49 c15 -42 6 -48 -13 -9 -18 35 -19 41 -7 41 5 0 14 -14 20 -32z
m62 -15 c23 -47 23 -49 -5 -24 -14 14 -26 30 -26 38 0 22 16 15 31 -14z m59
-13 c8 -5 11 -12 7 -16 -4 -4 -15 0 -24 9 -18 18 -8 23 17 7z m24 -45 c3 -8 1
-15 -4 -15 -6 0 -10 7 -10 15 0 8 2 15 4 15 2 0 6 -7 10 -15z m229 -147 c7
-23 1 -38 -14 -38 -5 0 -9 14 -9 30 0 35 15 40 23 8z m-30 -81 c-3 -6 -11 -3
-19 8 -7 10 -11 22 -7 28 3 6 11 3 19 -8 7 -10 11 -22 7 -28z m-36 -23 c7 -19
-18 -46 -34 -36 -16 10 -5 52 13 52 8 0 17 -7 21 -16z m-583 -50 c7 -19 2 -18
-19 6 -16 17 -16 20 -3 15 9 -4 19 -13 22 -21z m520 0 c9 -22 8 -24 -9 -18 -8
4 -15 12 -15 20 0 19 16 18 24 -2z m-434 -14 c22 -22 27 -44 8 -37 -7 2 -12
10 -10 16 1 6 -9 16 -23 21 -28 11 -33 20 -10 20 8 0 24 -9 35 -20z m90 -52
c0 -4 -7 -5 -15 -2 -8 4 -15 12 -15 20 0 8 -4 14 -10 14 -5 0 -10 8 -10 18 0
13 6 10 25 -13 13 -16 24 -33 25 -37z m291 52 c10 -6 19 -15 19 -20 0 -14 -34
-12 -48 2 -26 26 -7 37 29 18z m-250 -45 c7 -13 3 -12 -10 5 -11 14 -21 30
-21 35 0 11 14 -7 31 -40z m65 -13 c-9 -9 -46 30 -46 47 1 11 8 8 26 -13 14
-15 23 -31 20 -34z m49 42 c26 -17 34 -44 13 -44 -14 0 -58 40 -58 52 0 13 18
9 45 -8z m75 -5 c7 -11 9 -23 6 -26 -7 -7 -24 5 -36 28 -8 15 -7 19 4 19 9 0
20 -9 26 -21z"/>
<path d="M5127 1810 c-21 -17 -27 -30 -27 -59 0 -42 47 -142 83 -177 27 -26
97 -54 136 -54 16 0 36 -6 43 -14 24 -24 42 -146 34 -238 -20 -257 -19 -300 5
-363 41 -109 119 -156 202 -122 l35 15 6 104 c4 56 11 157 16 223 6 66 10 206
11 310 l1 190 -41 84 c-22 46 -47 91 -56 101 -13 14 -43 17 -218 19 -194 2
-204 2 -230 -19z m357 -20 c50 -1 47 17 66 -475 6 -159 6 -283 0 -340 -5 -49
-10 -91 -10 -92 0 -2 -20 -3 -45 -3 -43 0 -44 1 -57 43 -6 23 -18 52 -26 65
-12 19 -13 44 -2 171 8 86 10 181 6 227 -12 129 -15 158 -15 186 -2 51 -23 60
-121 52 -75 -5 -88 -4 -93 10 -4 9 -13 16 -22 16 -28 0 -48 95 -27 127 8 13
162 23 266 16 32 -1 68 -3 80 -3z m124 -120 c23 -40 29 -61 13 -44 -16 16 -51
84 -43 84 4 0 17 -18 30 -40z m3 -88 c33 -48 42 -72 26 -72 -11 0 -34 37 -65
103 -2 4 0 7 5 7 4 0 20 -17 34 -38z m-261 -25 c0 -6 -9 -2 -20 8 -11 10 -20
23 -20 28 0 6 9 2 20 -8 11 -10 20 -23 20 -28z m-55 -5 c-6 -7 -35 18 -35 31
0 5 9 2 20 -8 11 -10 18 -20 15 -23z m355 -115 c0 -12 -69 62 -70 75 0 3 16
-10 35 -29 19 -19 35 -40 35 -46z m-27 -40 c37 -72 34 -90 -8 -42 -21 24 -34
51 -35 68 0 40 12 33 43 -26z m-3 -107 c22 -42 25 -60 12 -60 -5 0 -17 19 -27
43 -10 23 -20 45 -23 50 -2 4 1 7 7 7 6 0 20 -18 31 -40z m-1 -92 c17 -20 21
-31 13 -44 -8 -15 -13 -11 -31 26 -21 44 -28 73 -13 55 4 -6 18 -22 31 -37z
m-9 -88 c15 -15 17 -25 11 -42 -9 -22 -9 -22 -16 -3 -3 11 -11 28 -16 37 -18
34 -8 37 21 8z m10 -137 c0 -18 -5 -33 -10 -33 -13 0 -30 43 -30 77 0 25 0 26
20 8 12 -11 20 -31 20 -52z m-30 -68 c0 -8 5 -15 10 -15 6 0 10 -10 10 -22 0
-19 -2 -20 -14 -8 -19 20 -30 60 -17 60 6 0 11 -7 11 -15z m-85 -65 c10 -11
14 -20 9 -20 -12 1 -44 25 -44 34 0 12 17 6 35 -14z m65 -1 c7 -11 9 -24 5
-27 -7 -7 -35 25 -35 40 0 16 19 8 30 -13z"/>
<path d="M6971 1784 c-29 -8 -89 -33 -132 -55 -251 -131 -292 -317 -137 -619
49 -96 74 -131 147 -208 68 -71 100 -97 147 -117 32 -14 72 -32 87 -40 16 -8
34 -12 40 -8 6 4 34 8 62 10 67 3 164 23 197 39 15 8 33 11 42 8 9 -3 28 9 50
33 48 52 50 106 5 168 -17 24 -28 49 -24 55 9 14 -22 49 -53 61 -39 15 -147
-23 -218 -77 -17 -13 -41 -24 -54 -24 -25 0 -78 30 -118 67 -15 13 -35 31 -44
40 -9 8 -21 28 -27 43 l-10 29 72 -5 c40 -2 96 -6 124 -9 29 -2 55 0 58 4 10
17 125 31 207 26 115 -7 116 -5 78 120 -16 54 -30 104 -30 111 0 8 -20 63 -45
122 -38 90 -54 115 -97 155 -74 68 -120 87 -204 86 -38 0 -93 -7 -123 -15z
m242 -44 c77 -39 157 -142 157 -203 0 -13 7 -37 15 -53 7 -16 15 -64 17 -107
l3 -77 -197 -5 c-123 -3 -199 -2 -203 5 -3 5 -19 7 -35 4 -16 -4 -51 1 -79 11
-28 9 -55 14 -61 10 -18 -11 -12 -122 10 -164 30 -60 67 -99 108 -112 20 -6
63 -25 94 -40 80 -41 117 -38 188 12 60 42 125 70 145 63 6 -3 17 -24 24 -48
12 -42 11 -46 -15 -85 -28 -42 -79 -81 -108 -81 -9 0 -16 -4 -16 -9 0 -17 -72
-34 -149 -35 -68 -1 -85 3 -145 33 -41 20 -72 42 -78 57 -6 13 -19 24 -29 24
-26 0 -114 113 -159 205 -94 192 -86 354 25 473 94 102 217 153 355 149 67 -2
95 -7 133 -27z m242 -481 c10 -14 1 -21 -19 -13 -9 3 -13 10 -10 15 7 12 21
11 29 -2z m-559 -26 c-8 -8 -36 5 -36 17 0 7 6 7 21 0 11 -7 18 -14 15 -17z
m115 7 l24 -19 -30 -1 c-16 0 -43 9 -60 20 l-30 20 36 0 c22 0 46 -8 60 -20z
m179 5 c22 -26 -3 -42 -34 -21 -15 9 -26 21 -26 26 0 16 46 12 60 -5z m66 5
c21 -8 25 -13 16 -22 -9 -9 -17 -7 -34 10 -25 25 -22 27 18 12z m69 0 c3 -5 2
-10 -4 -10 -5 0 -13 5 -16 10 -3 6 -2 10 4 10 5 0 13 -4 16 -10z m-210 -30 c3
-5 -3 -10 -14 -10 -12 0 -21 5 -21 10 0 6 6 10 14 10 8 0 18 -4 21 -10z m-210
-68 c-6 -7 -35 18 -35 31 0 5 9 2 20 -8 11 -10 18 -20 15 -23z m565 -215 c8
-14 11 -29 7 -33 -11 -11 -47 26 -47 48 0 26 21 18 40 -15z m-31 -53 c23 -24
23 -25 5 -39 -17 -12 -21 -11 -36 8 -21 26 -23 57 -5 57 6 0 23 -12 36 -26z
m-59 -39 c10 -12 10 -18 0 -30 -16 -20 -23 -19 -38 5 -22 35 12 57 38 25z
m-80 -40 c21 -25 1 -31 -22 -7 -18 18 -19 22 -6 22 8 0 21 -7 28 -15z m-86 -5
c14 -5 26 -14 26 -20 0 -17 -29 -11 -52 10 -24 22 -14 26 26 10z m-69 -11 c4
-6 5 -13 1 -16 -8 -8 -56 6 -56 17 0 13 47 13 55 -1z"/>
<path d="M6993 1666 c-102 -33 -193 -119 -193 -182 0 -40 20 -45 211 -49 189
-5 254 3 277 33 23 31 12 55 -61 127 -71 70 -75 73 -133 78 -38 4 -74 2 -101
-7z m177 -57 c71 -42 115 -95 104 -123 -5 -13 -22 -16 -83 -16 -113 0 -271 12
-271 20 0 22 68 105 88 108 12 2 22 7 22 12 0 5 17 11 38 13 20 2 44 4 52 5 8
1 31 -8 50 -19z m-210 1 c0 -5 -7 -10 -16 -10 -8 0 -12 5 -9 10 3 6 10 10 16
10 5 0 9 -4 9 -10z m-46 -55 c-4 -8 -10 -15 -14 -15 -4 0 -10 7 -14 15 -4 10
1 15 14 15 13 0 18 -5 14 -15z m-24 -41 c0 -8 -6 -11 -15 -8 -8 4 -15 12 -15
20 0 8 6 11 15 8 8 -4 15 -12 15 -20z"/>
</g>
</svg>
